<svg width="17" height="15" viewBox="0 0 17 15" fill="none" xmlns="http://www.w3.org/2000/svg">
<path d="M6.1197 7.84618C6.12721 7.0214 6.34877 6.21271 6.76271 5.49929C7.17665 4.78586 7.76875 4.19217 8.48107 3.77633C8.62284 3.6643 8.79122 3.5909 8.96979 3.5633C9.14836 3.5357 9.33103 3.55483 9.50001 3.61882C9.669 3.68281 9.8185 3.7895 9.93399 3.92846C10.0495 4.06743 10.127 4.23392 10.159 4.41176C10.3334 4.92344 10.5443 5.42293 10.7134 5.93635C10.7585 6.09047 10.8435 6.22991 10.9599 6.34059C11.0762 6.45126 11.2197 6.52923 11.3759 6.56657C11.8937 6.71563 12.4115 6.86294 12.9266 7.0181C12.9943 7.03089 13.0588 7.05707 13.1162 7.09509C13.1737 7.13311 13.223 7.18222 13.2612 7.23954C13.2995 7.29685 13.3259 7.36121 13.3389 7.42886C13.352 7.49651 13.3514 7.56608 13.3372 7.63351C13.3293 7.70626 13.3059 7.77649 13.2686 7.83943C13.2313 7.90237 13.1809 7.95657 13.1208 7.99837C13.0607 8.04018 12.9924 8.06862 12.9204 8.08177C12.8484 8.09491 12.7744 8.09247 12.7035 8.07459C12.1848 8.00224 11.6679 7.92116 11.1536 7.82179C10.768 7.764 10.4023 7.61283 10.0884 7.38146C9.77457 7.15008 9.52203 6.84549 9.35275 6.49421C9.26558 6.31988 9.15921 6.1534 9.04502 5.95465C8.64415 6.34527 8.37486 6.85101 8.27448 7.40165C8.21085 7.65443 8.27445 7.77471 8.52549 7.861C9.27165 8.1164 10.0126 8.38925 10.75 8.66993C10.8969 8.70523 11.0326 8.77696 11.1444 8.87849C11.2563 8.98001 11.3408 9.10807 11.3901 9.25086C11.4394 9.39364 11.452 9.54655 11.4267 9.69547C11.4013 9.8444 11.3389 9.98454 11.2451 10.103C10.8755 10.7132 10.4798 11.3076 10.0884 11.9047C9.81125 12.3275 9.80602 12.324 10.0884 12.7529C10.1059 12.779 10.1364 12.8061 10.1364 12.8322C10.1364 12.9725 10.1791 13.1574 10.1076 13.241C10.055 13.2929 9.99114 13.3318 9.92096 13.3548C9.85078 13.3778 9.77622 13.3842 9.70314 13.3735C9.32702 13.267 8.95887 13.1342 8.60136 12.976C8.53182 12.9533 8.46828 12.9153 8.41541 12.8648C8.36255 12.8142 8.3217 12.7524 8.29592 12.684C8.27014 12.6155 8.2601 12.5421 8.2665 12.4693C8.27289 12.3964 8.29559 12.3259 8.3329 12.263C8.6066 11.6046 8.88114 10.9462 9.15659 10.2878C9.17925 10.2329 9.19583 10.1762 9.21937 10.1134C8.63621 9.9391 8.06616 9.76999 7.50218 9.59042C7.25397 9.52153 7.01487 9.42321 6.79 9.29754C6.55281 9.14343 6.36402 8.9254 6.24542 8.6686C6.12681 8.4118 6.08323 8.12669 6.1197 7.84618V7.84618Z" fill="#EA1D2C"/>
<path d="M4.77949 8.63586C4.2713 8.64196 3.76223 8.63064 3.25404 8.6411C3.04343 8.64566 2.83377 8.67107 2.62816 8.71694C2.19596 8.80825 1.79748 9.01742 1.47684 9.32128C1.15621 9.62514 0.925964 10.0118 0.811591 10.4385L0.628572 10.9868L0.518761 10.9737C0.357158 10.5973 0.297109 10.1851 0.34468 9.77819C0.392251 9.37131 0.5457 8.98403 0.789778 8.65504C0.299893 8.54957 0.0567359 8.31859 0.0480191 7.9211C0.0247743 6.8931 0.00912317 5.86481 0.000987485 4.83622C-0.00416071 4.73952 0.0108594 4.64282 0.0451461 4.55225C0.0794329 4.46169 0.132176 4.37925 0.200074 4.3102C0.267972 4.24116 0.349511 4.18701 0.439488 4.1512C0.529465 4.1154 0.625862 4.09873 0.722636 4.10226C1.79422 4.09238 2.8659 4.09238 3.93749 4.10226C4.14805 4.10217 4.35149 4.17831 4.51028 4.31659C4.66907 4.45487 4.77245 4.64595 4.8013 4.85452C4.99655 5.87032 5.18917 6.88728 5.37919 7.90541C5.40497 7.99478 5.40861 8.08908 5.38983 8.18018C5.37105 8.27127 5.33042 8.35643 5.2714 8.42832C5.21238 8.50021 5.13673 8.55666 5.05103 8.59282C4.96534 8.62898 4.87216 8.64375 4.77949 8.63586V8.63586Z" fill="#EA1D2C"/>
<path d="M13.1496 9.60398C13.3108 9.52291 13.3762 9.44533 13.3074 9.26489C13.2583 9.12291 13.221 8.97714 13.1958 8.82905C13.1487 8.59718 13.2272 8.43854 13.4015 8.39321C13.5924 8.34178 13.7441 8.44639 13.8077 8.68C13.8652 8.89007 13.9167 9.10276 13.9759 9.33725C14.1879 9.32544 14.4004 9.32544 14.6123 9.33725C15.1369 9.40207 15.629 9.62592 16.0227 9.97872C16.4163 10.3315 16.6925 10.7963 16.8142 11.3107C16.9348 11.8262 16.8955 12.3662 16.7014 12.8588C16.5074 13.3514 16.1678 13.7731 15.728 14.0679C15.2881 14.3587 14.7697 14.508 14.2424 14.4957C13.7151 14.4834 13.2042 14.3101 12.7783 13.999C12.423 13.736 12.1409 13.3865 11.9588 12.9837C11.7767 12.581 11.7006 12.1383 11.7378 11.6979C11.7751 11.2574 11.9243 10.8338 12.1714 10.4673C12.4185 10.1008 12.7552 9.80363 13.1496 9.60398V9.60398ZM12.8506 12.4544C12.9859 12.8167 13.2513 13.1156 13.5951 13.2929C13.9388 13.4702 14.3363 13.5131 14.7099 13.4132C15.0921 13.3071 15.4195 13.0597 15.6259 12.721C15.8323 12.3824 15.9021 11.9779 15.8213 11.5897C15.7478 11.2286 15.5455 10.9066 15.2522 10.6835C14.9589 10.4604 14.5946 10.3516 14.227 10.3772C14.2959 10.6439 14.3577 10.9063 14.4362 11.1617C14.4493 11.2061 14.5234 11.2366 14.5792 11.2645C14.6697 11.3035 14.751 11.3612 14.8176 11.4338C14.8842 11.5065 14.9346 11.5924 14.9656 11.686C14.9965 11.7795 15.0073 11.8786 14.9972 11.9767C14.9871 12.0747 14.9563 12.1695 14.9069 12.2547C14.86 12.3362 14.7971 12.4074 14.722 12.464C14.6469 12.5205 14.5611 12.5613 14.4698 12.5839C14.3785 12.6064 14.2836 12.6103 14.1908 12.5952C14.098 12.5802 14.0092 12.5465 13.9298 12.4962C13.8478 12.4421 13.7779 12.3716 13.7245 12.2891C13.6711 12.2066 13.6354 12.114 13.6196 12.017C13.6038 11.9201 13.6082 11.8209 13.6327 11.7257C13.6571 11.6306 13.701 11.5415 13.7615 11.4641C13.8064 11.3893 13.8234 11.301 13.8095 11.2148C13.7668 10.9856 13.7005 10.7616 13.6351 10.5175C13.2862 10.6842 13.0122 10.9753 12.8671 11.3337C12.7219 11.6921 12.716 12.0919 12.8506 12.4544V12.4544Z" fill="#EA1D2C"/>
<path d="M3.82554 9.33017C4.1653 9.32576 4.5025 9.38916 4.81746 9.51668C5.13242 9.64419 5.41878 9.83324 5.65977 10.0728C5.90077 10.3123 6.09164 10.5975 6.22107 10.9117C6.35049 11.2259 6.4159 11.5627 6.41356 11.9025C6.41655 12.2421 6.35232 12.579 6.22458 12.8936C6.09684 13.2083 5.90809 13.4946 5.66924 13.7361C5.4304 13.9775 5.14618 14.1693 4.83289 14.3004C4.5196 14.4316 4.18346 14.4994 3.84384 14.5001C3.50414 14.5006 3.16776 14.4339 2.85394 14.3038C2.54012 14.1738 2.25505 13.9829 2.01525 13.7423C1.77545 13.5017 1.5856 13.2161 1.45662 12.9018C1.32763 12.5876 1.26209 12.2509 1.2637 11.9112C1.26208 11.2295 1.53085 10.575 2.0111 10.0911C2.49135 9.60727 3.14383 9.33363 3.82554 9.33017ZM3.84469 13.4689C4.25614 13.4643 4.6494 13.2983 4.93962 13.0066C5.22984 12.715 5.39382 12.3209 5.39631 11.9095C5.39335 11.4973 5.22823 11.1028 4.93674 10.8113C4.64526 10.5198 4.25084 10.3547 3.83863 10.3518C3.6348 10.3526 3.43312 10.3937 3.24531 10.4729C3.05749 10.5522 2.88728 10.6678 2.74445 10.8133C2.60162 10.9587 2.48903 11.131 2.41321 11.3202C2.33739 11.5094 2.29988 11.7117 2.30276 11.9156C2.29998 12.1191 2.33775 12.3212 2.41395 12.51C2.49016 12.6988 2.60326 12.8706 2.74658 13.0152C2.8899 13.1598 3.0605 13.2744 3.24861 13.3523C3.43671 13.4302 3.63854 13.4698 3.84214 13.4689H3.84469Z" fill="#EA1D2C"/>
<path d="M12.8788 2.26752C12.3674 2.1692 11.8623 2.04026 11.3664 1.88137C11.0404 1.78462 10.8661 1.88748 10.9123 2.22395C10.9613 2.50946 11.025 2.79224 11.1032 3.07121C11.1241 3.17998 11.1757 3.28055 11.2518 3.36101C11.3279 3.44146 11.4255 3.4985 11.5329 3.5254C11.9766 3.64395 12.4211 3.75901 12.8692 3.85925C13.0784 3.90545 13.1307 3.97606 12.9973 4.15214C12.9144 4.28288 12.7923 4.38405 12.6484 4.44119C12.5046 4.49833 12.3463 4.50852 12.1963 4.47029C11.6501 4.34173 11.1138 4.17421 10.5915 3.96907C10.2486 3.82465 9.95938 3.57674 9.76419 3.25997C9.569 2.9432 9.47757 2.57341 9.50275 2.20219C9.54089 1.98726 9.59777 1.77609 9.67273 1.57109C9.81664 1.2343 10.0618 0.950605 10.3742 0.759423C10.6866 0.56824 11.0507 0.479043 11.4161 0.504154C11.8093 0.525402 12.1875 0.661942 12.5036 0.896793C12.8197 1.13165 13.0596 1.45437 13.1935 1.82471C13.3233 2.18036 13.244 2.32592 12.8788 2.26752Z" fill="#EA1D2C"/>
<path d="M15.2358 8.78704C15.0182 8.72807 14.8082 8.64411 14.61 8.53685C14.4455 8.45108 14.3081 8.32132 14.2132 8.16201C14.1182 8.0027 14.0694 7.82011 14.0721 7.63466C14.0703 7.35437 14.1552 7.08038 14.3151 6.8502C14.4751 6.62003 14.7022 6.44495 14.9656 6.34895C15.0239 6.30361 15.092 6.27235 15.1644 6.2576C15.2368 6.24285 15.3116 6.24498 15.3831 6.26388C15.4545 6.28277 15.5206 6.31789 15.5762 6.36651C15.6319 6.41512 15.6756 6.47595 15.7039 6.54421C15.9344 6.91799 16.0456 7.35305 16.0229 7.79158C15.9727 8.03847 15.9058 8.28165 15.8225 8.51943C15.8069 8.57917 15.7781 8.63468 15.7384 8.68194C15.6987 8.72919 15.6489 8.767 15.5927 8.79263C15.5366 8.81825 15.4754 8.83105 15.4137 8.83008C15.3519 8.82911 15.2911 8.81441 15.2358 8.78704V8.78704Z" fill="#EA1D2C"/>
<path d="M11.272 2.03667C11.3086 2.02533 11.4185 2.12383 11.4246 2.18223C11.4307 2.24063 11.3618 2.32258 11.2903 2.46117C11.1918 2.33304 11.0977 2.26329 11.1038 2.19965C11.1099 2.13602 11.2014 2.0541 11.272 2.03667Z" fill="#EA1D2C"/>
<path d="M3.80256 11.2108C3.89828 11.2049 3.99422 11.2185 4.08454 11.2507C4.17486 11.283 4.25767 11.3332 4.328 11.3984C4.39833 11.4636 4.45468 11.5424 4.49367 11.63C4.53266 11.7177 4.55351 11.8123 4.55486 11.9082C4.55447 12.094 4.48301 12.2726 4.35513 12.4075C4.22726 12.5423 4.0526 12.6232 3.86705 12.6334C3.773 12.6361 3.67932 12.6201 3.59145 12.5865C3.50359 12.5528 3.42333 12.5021 3.35513 12.4373C3.28692 12.3725 3.23212 12.2949 3.19403 12.2089C3.15593 12.1228 3.1352 12.0301 3.13305 11.9361C3.12849 11.8443 3.14227 11.7525 3.1736 11.6661C3.20493 11.5797 3.25321 11.5004 3.31554 11.4329C3.37788 11.3654 3.45304 11.3109 3.53665 11.2728C3.62027 11.2347 3.7107 11.2136 3.80256 11.2108V11.2108Z" fill="#EA1D2C"/>
</svg>
